<svg width="39" height="39" viewBox="0 0 39 39" xmlns="http://www.w3.org/2000/svg"><title>Icon</title><g fill="none" fill-rule="evenodd"><circle fill="#FFE11A" cx="19.405" cy="19.405" r="19"/><path d="M25.233 15.414c.35 0 .636.286.636.637v7c0 .35-.286.637-.637.637h-5.5L16.96 25.67v-1.983h-1.91c-.35 0-.636-.286-.636-.636v-7c0-.35.286-.636.637-.636h10.183m0-1.272H15.05c-1.054 0-1.908.854-1.908 1.91v7c0 1.053.854 1.908 1.91 1.908h.635v3.182l4.455-3.182h5.09c1.055 0 1.91-.855 1.91-1.91v-7c0-1.054-.855-1.908-1.91-1.908" fill="#FFF"/></g></svg>