<svg width="38" height="38" viewBox="0 0 38 38" xmlns="http://www.w3.org/2000/svg"><title>Icon</title><g fill="none" fill-rule="evenodd"><circle fill="#00C8FF" cx="19" cy="19" r="19"/><path d="M25.125 19.36L19.5 26.02l-5.625-6.686c-.673-.927-.938-1.553-.938-2.41 0-1.6 1.15-3.04 2.813-3.052 1.367-.01 2.917 1.373 3.75 2.417.81-1.008 2.383-2.418 3.75-2.418 1.618 0 2.813 1.452 2.813 3.05 0 .86-.21 1.53-.938 2.44zM23.25 13c-1.562 0-2.745.91-3.75 1.86-.958-1.01-2.188-1.86-3.75-1.86-2.2 0-3.75 1.877-3.75 3.923 0 1.098.453 1.888.95 2.63l5.828 6.932c.654.687.777.687 1.43 0l5.842-6.93c.584-.744.95-1.534.95-2.632C27 14.877 25.45 13 23.25 13z" fill="#FFF"/></g></svg>