<svg width="33" height="32" viewBox="0 0 33 32" xmlns="http://www.w3.org/2000/svg" xmlns:xlink="http://www.w3.org/1999/xlink"><title>Github Logo</title><defs><path id="a" d="M0 31.775h32.58V0H0z"/></defs><g fill="none" fill-rule="evenodd"><mask id="b" fill="#fff"><use xlink:href="#a"/></mask><path d="M0 16.29c0 7.197 4.668 13.302 11.14 15.457.816.15 1.112-.354 1.112-.786 0-.385-.014-1.41-.022-2.77-4.53.985-5.487-2.183-5.487-2.183-.74-1.88-1.81-2.383-1.81-2.383-1.478-1.01.114-.99.114-.99 1.635.115 2.495 1.68 2.495 1.68 1.453 2.488 3.813 1.77 4.74 1.353.15-1.053.57-1.77 1.034-2.178-3.617-.412-7.42-1.81-7.42-8.052 0-1.778.636-3.232 1.678-4.37-.168-.413-.728-2.07.16-4.312-.002 0 1.367-.438 4.479 1.67 1.3-.362 2.693-.542 4.078-.548 1.384.006 2.777.186 4.08.548 3.108-2.108 4.473-1.67 4.473-1.67.89 2.243.33 3.9.163 4.31 1.043 1.14 1.674 2.594 1.674 4.372 0 6.258-3.808 7.635-7.438 8.038.585.503 1.107 1.497 1.107 3.017-.002 2.177-.022 3.934-.022 4.468 0 .437.294.944 1.12.785 6.468-2.16 11.132-8.26 11.132-15.455C32.58 7.293 25.286 0 16.29 0 7.292 0-.002 7.293-.002 16.29z" fill="#9C9C9C" mask="url(#b)"/></g></svg>